<?xml version="1.0" encoding="UTF-8"?>
<svg version="1.1" xmlns="http://www.w3.org/2000/svg" width="319" height="341">
<path d="M0 0 C8.49884576 5.72037695 16.3024669 13.45370036 22 22 C22.66 22 23.32 22 24 22 C25.22724909 20.48364283 25.22724909 20.48364283 26.3828125 18.5 C26.82753906 17.778125 27.27226562 17.05625 27.73046875 16.3125 C28.19066406 15.549375 28.65085938 14.78625 29.125 14 C29.82689453 12.8553125 29.82689453 12.8553125 30.54296875 11.6875 C31.7018143 9.79550727 32.85376747 7.89965148 34 6 C38.9519145 6.45213132 41.29818227 7.64400043 44.875 11.0625 C46.17050781 12.29613281 46.17050781 12.29613281 47.4921875 13.5546875 C48.31976563 14.36164062 49.14734375 15.16859375 50 16 C51.02480469 16.93199219 51.02480469 16.93199219 52.0703125 17.8828125 C66.42585833 31.30844443 76.16023041 50.22817505 84 68 C89.82462206 68.17191919 92.43937812 67.78434581 97 64 C102.30537735 58.88872182 105.64470742 53.48937295 106.23657227 46.01074219 C106.2943748 42.66870463 106.26214144 39.34163976 106.1875 36 C106.16719727 34.26556641 106.16719727 34.26556641 106.14648438 32.49609375 C106.11137044 29.66356996 106.06219 26.83203693 106 24 C110.87033486 24 111.49708001 24.93791995 114.9375 28.1875 C115.82050781 29.01636719 116.70351563 29.84523438 117.61328125 30.69921875 C118.40089844 31.45847656 119.18851562 32.21773437 120 33 C120.86625 33.825 121.7325 34.65 122.625 35.5 C123.40875 36.325 124.1925 37.15 125 38 C125.62648438 38.64324219 126.25296875 39.28648438 126.8984375 39.94921875 C134.84301464 48.41063641 139.55353824 57.4525869 140.1015625 69.171875 C139.7583314 76.40613051 136.21159402 82.64556167 133 89 C132.34 89 131.68 89 131 89 C130.34 90.65 129.68 92.3 129 94 C128.34 94 127.68 94 127 94 C126.59587891 95.10408203 126.59587891 95.10408203 126.18359375 96.23046875 C125.04341117 98.89842073 123.74959362 100.96430608 122.0625 103.3125 C118.73300082 108.21698286 116.21554653 112.76680199 115.8125 118.8125 C117.40910388 121.7536124 119.40019347 122.26820757 122.4921875 123.265625 C123.73355469 123.62914063 123.73355469 123.62914063 125 124 C137.059464 127.59496217 146.31359569 131.87822525 153 143 C160.77749643 158.90570224 162.16662304 176.73634585 156.9375 193.625 C151.85644588 207.29028516 144.89152021 218.32297672 135 229 C134.3090625 229.76054687 133.618125 230.52109375 132.90625 231.3046875 C129.37001349 235.02933005 125.83875069 237.75252189 121.5 240.5 C115.98362646 244.38945953 113.83148575 248.46008488 111.13330078 254.43139648 C108.52204376 260.16440666 105.39115813 265.33827735 101.875 270.5625 C101.38394775 271.29968262 100.89289551 272.03686523 100.38696289 272.79638672 C92.58963002 284.27357999 92.58963002 284.27357999 87 288 C87.144375 288.9178125 87.28875 289.835625 87.4375 290.78125 C89.23319882 302.65281442 90.37222939 311.5946342 83.625 322 C75.70833107 331.84756379 61.27848241 337.9159486 49 340 C33.50196544 341.41017527 17.45722818 341.74736769 4.0703125 332.890625 C1.28355731 331.69179447 -0.13161848 332.10280208 -3 333 C-5.3974426 334.15641349 -7.69276009 335.44046156 -10.01171875 336.74609375 C-26.37417091 343.61190701 -48.78668026 341.52006461 -65.04931641 335.20410156 C-71.57560183 332.42418101 -77.24461361 329.4058459 -82 324 C-82 323.34 -82 322.68 -82 322 C-82.66 322 -83.32 322 -84 322 C-89.29746728 313.44837424 -90.28546565 306.41272068 -88.3125 296.5703125 C-87.60748574 293.6892446 -86.84663972 290.8422905 -86 288 C-86.59425781 287.73703125 -87.18851562 287.4740625 -87.80078125 287.203125 C-97.94477756 281.65365633 -104.49936267 266.90113839 -109.73754883 256.99853516 C-113.87374747 249.22206577 -117.66351493 243.17097517 -125 238 C-126.52216373 236.87680072 -128.04306699 235.75189057 -129.5625 234.625 C-130.22378906 234.16351563 -130.88507813 233.70203125 -131.56640625 233.2265625 C-132.03949219 232.82179687 -132.51257813 232.41703125 -133 232 C-133 231.34 -133 230.68 -133 230 C-133.99 229.67 -134.98 229.34 -136 229 C-151.82175614 212.65698445 -159.42319462 191.93859228 -159.30053711 169.4296875 C-158.9669067 156.04856478 -155.9011376 142.49326649 -146.03515625 132.921875 C-140.87822178 128.49190465 -135.49975253 126.56723915 -129.0625 124.625 C-127.01021057 123.97610502 -124.95934533 123.3226828 -122.91015625 122.6640625 C-122.01433838 122.39029785 -121.11852051 122.1165332 -120.19555664 121.83447266 C-117.83615707 121.10932802 -117.83615707 121.10932802 -116 119 C-115.19676827 112.46141192 -117.9734169 107.9065071 -121.76171875 102.86328125 C-122.50035156 101.91839844 -123.23898438 100.97351563 -124 100 C-133.34496914 87.96270072 -140.66730628 78.02346291 -139 62 C-137.3087985 49.50500538 -127.87063219 37.72058657 -118.46484375 29.875 C-108.1125 22 -108.1125 22 -105 22 C-105.01047363 22.74572266 -105.02094727 23.49144531 -105.03173828 24.25976562 C-105.07358445 27.67314213 -105.09941676 31.08646442 -105.125 34.5 C-105.14175781 35.67304687 -105.15851563 36.84609375 -105.17578125 38.0546875 C-105.22213591 46.30581747 -105.15626534 54.12497954 -100 61 C-95.70580229 65.16407051 -90.34841696 67.46599274 -85 70 C-84.5153125 68.86304687 -84.030625 67.72609375 -83.53125 66.5546875 C-73.74952113 43.8869374 -59.64078137 15.89600073 -36 5 C-35.01 5.33 -34.02 5.66 -33 6 C-32.04296875 8.546875 -32.04296875 8.546875 -31.1875 11.75 C-29.46909785 17.36656735 -27.92335928 19.86695318 -23 23 C-22.44828125 22.29746094 -21.8965625 21.59492188 -21.328125 20.87109375 C-15.00256512 13.07027745 -8.46276296 5.52868182 0 0 Z M-72 89 C-77.34802149 99.83929355 -78.1292257 112.89126043 -74.25 124.375 C-72.76019522 128.09951195 -71.25601716 130.61048361 -68 133 C-64.51573056 133.56884306 -61.0688424 133.4644027 -57.546875 133.390625 C-56.02383759 133.38213531 -56.02383759 133.38213531 -54.47003174 133.37347412 C-51.22953999 133.35109753 -47.9901571 133.30089755 -44.75 133.25 C-42.55209931 133.22993671 -40.35418128 133.21168565 -38.15625 133.1953125 C-32.7704555 133.15122871 -27.38530697 133.08430373 -22 133 C-22.58375153 128.69870755 -22.58375153 128.69870755 -25.8515625 125.7109375 C-27.10077174 124.91856265 -28.35930594 124.1407677 -29.625 123.375 C-30.99797555 122.50164924 -32.36901538 121.62524925 -33.73828125 120.74609375 C-34.4442041 120.2960498 -35.15012695 119.84600586 -35.87744141 119.38232422 C-48.36431489 111.25020118 -59.83317144 102.03540183 -69.50390625 90.65234375 C-69.99761719 90.10707031 -70.49132812 89.56179687 -71 89 C-71.33 89 -71.66 89 -72 89 Z M69.14331055 90.69311523 C68.02629761 91.8640271 68.02629761 91.8640271 66.88671875 93.05859375 C66.05736816 93.91541748 65.22801758 94.77224121 64.37353516 95.6550293 C63.48714355 96.57324463 62.60075195 97.49145996 61.6875 98.4375 C54.23396676 106.02013601 47.1298908 112.49689539 38 118 C36.05145524 119.17911681 34.10708352 120.36360796 32.17138672 121.5637207 C30.92543172 122.33298314 29.66958845 123.08654051 28.40283203 123.82104492 C25.53493135 125.5730101 24.15891248 126.50653494 23.109375 129.765625 C23.07328125 130.50296875 23.0371875 131.2403125 23 132 C25.87413546 132.82130142 28.41599822 133.12230589 31.40136719 133.11352539 C32.2619574 133.11344986 33.12254761 133.11337433 34.00921631 133.11329651 C34.92914368 133.10813522 35.84907104 133.10297394 36.796875 133.09765625 C37.74564514 133.0962413 38.69441528 133.09482635 39.67193604 133.09336853 C42.69798962 133.08777742 45.72396883 133.07522652 48.75 133.0625 C50.80338435 133.05748385 52.85676986 133.05292115 54.91015625 133.04882812 C59.94013276 133.03781089 64.97005378 133.02055233 70 133 C70.64682841 131.72764428 71.29121384 130.45404644 71.93457031 129.17993164 C72.29367493 128.47083145 72.65277954 127.76173126 73.02276611 127.03114319 C77.46480498 117.79853561 78.98106902 105.49204282 76.35546875 95.5625 C75.53122335 93.50362819 75.53122335 93.50362819 74 91 C73.505 90.01 73.505 90.01 73 89 C70.82750961 88.77539718 70.82750961 88.77539718 69.14331055 90.69311523 Z M96 163 C94.63681641 164.10794922 94.63681641 164.10794922 93.24609375 165.23828125 C91.97722007 166.26383495 90.70763279 167.2885061 89.4375 168.3125 C88.76944336 168.85140869 88.10138672 169.39031738 87.41308594 169.94555664 C82.0299801 174.25342546 76.51257789 178.34121078 70.83764648 182.25708008 C64.9269762 186.44974777 62.99567225 190.39638663 61.125 197.25 C57.13113917 210.59790331 48.32063036 224.18986735 35.890625 231.1875 C34 232 34 232 32 232 C32.24230347 230.70255859 32.24230347 230.70255859 32.48950195 229.37890625 C33.31268147 223.93041053 33.18445078 218.50079674 33.1875 213 C33.19974609 211.83726562 33.21199219 210.67453125 33.22460938 209.4765625 C33.22654297 208.34992188 33.22847656 207.22328125 33.23046875 206.0625 C33.23457764 205.04285156 33.23868652 204.02320313 33.24291992 202.97265625 C32.97459884 199.6891613 32.25335434 197.04240101 31 194 C29.04647322 192.77623847 29.04647322 192.77623847 26.625 192.375 C25.73167969 192.15585938 24.83835938 191.93671875 23.91796875 191.7109375 C22.95503906 191.47632813 21.99210938 191.24171875 21 191 C18.97273114 190.35316713 16.95183223 189.68605938 14.9375 189 C13.92042969 188.67257813 12.90335937 188.34515625 11.85546875 188.0078125 C9 187 9 187 6.80078125 185.8671875 C2.79682146 183.93003362 0.70412243 183.7983923 -3.65625 185.046875 C-6.44200569 186.07588733 -9.16915555 187.22269382 -11.90234375 188.3828125 C-15.64328087 189.94484569 -19.31662743 190.77672474 -23.3125 191.5 C-27.89968384 192.41822461 -27.89968384 192.41822461 -31.25 195.5625 C-33.15009045 204.27124788 -33.03093785 212.76237124 -32.5625 221.625 C-32.51029297 222.72457031 -32.45808594 223.82414062 -32.40429688 224.95703125 C-32.27605696 227.63841122 -32.14117502 230.31927531 -32 233 C-44.67130122 224.84021641 -56.42888063 213.87466952 -61 199 C-61.13013874 197.14618692 -61.25494327 195.2919933 -61.375 193.4375 C-61.9931258 189.46935311 -62.57570397 188.32588292 -65.8125 185.83984375 C-68.84022702 184.08194742 -71.98582926 182.55934798 -75.12060547 181.00341797 C-83.01384323 176.78917957 -89.99495588 170.57594621 -96 164 C-104.2015142 171.54610162 -108.06316085 183.09159891 -109 194 C-108.28861633 201.97201384 -103.73614728 207.83218781 -99 214 C-96.99494783 216.64202603 -94.996742 219.28918956 -93 221.9375 C-92.47567383 222.63166016 -91.95134766 223.32582031 -91.41113281 224.04101562 C-87.29822406 229.51973023 -83.59332993 235.16806682 -80 241 C-78.92524974 242.66297164 -77.85030976 244.32582635 -76.77099609 245.98583984 C-72.73871081 252.19318826 -68.85925396 258.47746873 -65.09423828 264.85058594 C-62.84106808 268.65366096 -60.48032183 272.34361547 -58 276 C-55.30642341 273.4057527 -53.01216928 270.76979289 -50.8125 267.75 C-44.86135644 260.04403206 -39.19439766 255.15181245 -30 252 C-30.00785522 252.9132605 -30.00785522 252.9132605 -30.01586914 253.8449707 C-30.23937816 269.45602789 -30.23937816 269.45602789 -29 285 C-23.48490103 285.09600753 -18.053215 285.068281 -12.5625 284.5 C-3.92882406 283.64031676 4.49348987 283.8830048 13.109375 284.77734375 C18.3995164 285.18482761 23.69807035 285.07586227 29 285 C29.94150147 277.39795923 30.3033803 269.85482601 30.51757812 262.20117188 C30.55173828 261.30076172 30.58589844 260.40035156 30.62109375 259.47265625 C30.65867798 258.25461304 30.65867798 258.25461304 30.69702148 257.01196289 C31 255 31 255 33 253 C43.87184582 259.39520342 51.41511521 266.22473398 58 277 C61.62498154 273.72182763 64.05791819 269.95978542 66.5625 265.8125 C67.4466865 264.37294162 68.33214714 262.93416519 69.21875 261.49609375 C69.67507812 260.75472168 70.13140625 260.01334961 70.6015625 259.24951172 C72.87421305 255.59375016 75.21621205 251.98378687 77.5625 248.375 C78.49221214 246.94402642 79.42189993 245.51303703 80.3515625 244.08203125 C80.79918945 243.39318848 81.24681641 242.7043457 81.70800781 241.99462891 C83.26935404 239.58416052 84.81641278 237.1647801 86.36230469 234.74438477 C90.28790184 228.60373109 94.28231966 222.51001387 98.3125 216.4375 C99.06841431 215.29390015 99.06841431 215.29390015 99.83959961 214.12719727 C101.8994905 211.03477961 103.95659862 208.05375265 106.29296875 205.16015625 C110.21368355 200.19870251 109.491537 194.00921292 109 188 C107.1707992 179.09440525 103.89264274 168.26176183 96 163 Z " fill="#010101" transform="translate(159,0)"/>
<path d="M0 0 C2.00753698 1.09040327 4.00588751 2.19773572 6 3.3125 C7.11375 3.92738281 8.2275 4.54226563 9.375 5.17578125 C10.24125 5.77777344 11.1075 6.37976563 12 7 C12 10 12 10 11 12 C9.68 10.68 8.36 9.36 7 8 C6.5875 8.515625 6.175 9.03125 5.75 9.5625 C5.1725 10.036875 4.595 10.51125 4 11 C2.68 10.67 1.36 10.34 0 10 C-0.33 13.96 -0.66 17.92 -1 22 C-1.66 22 -2.32 22 -3 22 C-2.89008434 18.89510601 -2.75946585 15.79142006 -2.625 12.6875 C-2.5940625 11.80642578 -2.563125 10.92535156 -2.53125 10.01757812 C-2.47324219 8.74624023 -2.47324219 8.74624023 -2.4140625 7.44921875 C-2.3826416 6.66893311 -2.3512207 5.88864746 -2.31884766 5.0847168 C-2 3 -2 3 0 0 Z " fill="#151215" transform="translate(191,252)"/>
<path d="M0 0 C1.32 1.32 2.64 2.64 4 4 C3.401875 4.556875 2.80375 5.11375 2.1875 5.6875 C-1.26786647 9.34031598 -3.03789192 12.17679869 -3.5 17.1875 C-3.665 18.445625 -3.83 19.70375 -4 21 C-4.99 21.66 -5.98 22.32 -7 23 C-7.33 22.01 -7.66 21.02 -8 20 C-8.33 20.99 -8.66 21.98 -9 23 C-9.99 23 -10.98 23 -12 23 C-10.49289345 17.77042263 -8.13433901 13.36968968 -5.4375 8.6875 C-5.02564453 7.95982422 -4.61378906 7.23214844 -4.18945312 6.48242188 C-1.15697714 1.15697714 -1.15697714 1.15697714 0 0 Z " fill="#110C0D" transform="translate(91,37)"/>
<path d="M0 0 C1.41377341 2.63904371 2.37240135 5.07120629 3 8 C2.01 8.66 1.02 9.32 0 10 C-3.72114571 7.68462045 -6.61229661 5.71420527 -9 2 C-5.5647952 -0.29013653 -4.014669 -0.17842973 0 0 Z " fill="#120E0F" transform="translate(86,321)"/>
<path d="M0 0 C0.556875 0.226875 1.11375 0.45375 1.6875 0.6875 C1.6875 1.6775 1.6875 2.6675 1.6875 3.6875 C1.06875 3.790625 0.45 3.89375 -0.1875 4 C-2.67776484 4.56275373 -2.67776484 4.56275373 -4.3125 7.6875 C-4.9725 7.6875 -5.6325 7.6875 -6.3125 7.6875 C-6.3125 6.6975 -6.3125 5.7075 -6.3125 4.6875 C-7.32144372 5.61536789 -8.31940907 6.55518433 -9.3125 7.5 C-9.869375 8.02207031 -10.42625 8.54414063 -11 9.08203125 C-12.628965 10.72898967 -12.628965 10.72898967 -12.3125 13.6875 C-14.2925 14.6775 -14.2925 14.6775 -16.3125 15.6875 C-14.77295016 8.67399517 -10.17845017 4.82030012 -4.625 0.6875 C-2.3125 -0.3125 -2.3125 -0.3125 0 0 Z " fill="#181113" transform="translate(22.3125,128.3125)"/>
<path d="M0 0 C3.16774824 2.39721488 5.90942317 4.58905886 8 8 C8 8.99 8 9.98 8 11 C6.35 11.33 4.7 11.66 3 12 C3 12.66 3 13.32 3 14 C2.01 13.67 1.02 13.34 0 13 C0.66 12.01 1.32 11.02 2 10 C1.484375 9.0925 0.96875 8.185 0.4375 7.25 C-1 4 -1 4 -0.6875 1.625 C-0.460625 1.08875 -0.23375 0.5525 0 0 Z " fill="#141112" transform="translate(56,58)"/>
<path d="M0 0 C0.66 0.66 1.32 1.32 2 2 C-3.48247978 7.78706199 -3.48247978 7.78706199 -7 9 C-7.66 8.67 -8.32 8.34 -9 8 C-9 6.02 -9 4.04 -9 2 C-6.50935112 1.31292445 -4.62113708 1 -2 1 C-1.34 0.67 -0.68 0.34 0 0 Z " fill="#171315" transform="translate(200,224)"/>
<path d="M0 0 C1 3 1 3 1 6 C0.34 6 -0.32 6 -1 6 C-1 6.66 -1 7.32 -1 8 C-0.34 8.33 0.32 8.66 1 9 C0.25 11.4375 0.25 11.4375 -1 14 C-3.125 14.8125 -3.125 14.8125 -5 15 C-6.2109375 13.359375 -6.2109375 13.359375 -7 11 C-5.6640625 8.203125 -5.6640625 8.203125 -3.625 5.25 C-2.95726562 4.26515625 -2.28953125 3.2803125 -1.6015625 2.265625 C-1.07304687 1.51796875 -0.54453125 0.7703125 0 0 Z " fill="#09080A" transform="translate(191,9)"/>
<path d="M0 0 C-2.96346786 2.47186455 -5.54041689 3.66248361 -9.25 4.6875 C-10.14203125 4.93886719 -11.0340625 5.19023437 -11.953125 5.44921875 C-12.62859375 5.63097656 -13.3040625 5.81273437 -14 6 C-14 4.68 -14 3.36 -14 2 C-13.360625 1.87625 -12.72125 1.7525 -12.0625 1.625 C-11.0415625 1.315625 -11.0415625 1.315625 -10 1 C-9.67 0.34 -9.34 -0.32 -9 -1 C-5.4700617 -2.5128307 -3.36420736 -1.58865348 0 0 Z " fill="#100C0E" transform="translate(230,331)"/>
<path d="M0 0 C0 2.64 0 5.28 0 8 C-0.66 7.01 -1.32 6.02 -2 5 C-2.66 6.65 -3.32 8.3 -4 10 C-6.31 9.01 -8.62 8.02 -11 7 C-9.33784732 5.66104368 -7.67036393 4.32869858 -6 3 C-5.278125 2.4225 -4.55625 1.845 -3.8125 1.25 C-2 0 -2 0 0 0 Z " fill="#1C171B" transform="translate(54,22)"/>
<path d="M0 0 C0.99 0.33 1.98 0.66 3 1 C3.73046875 3.06640625 3.73046875 3.06640625 4.1875 5.5625 C4.34605469 6.38878906 4.50460938 7.21507812 4.66796875 8.06640625 C4.77753906 8.70449219 4.88710937 9.34257812 5 10 C4.38125 9.814375 3.7625 9.62875 3.125 9.4375 C0.95839822 8.76313824 0.95839822 8.76313824 -1 10 C-1.99 8.68 -2.98 7.36 -4 6 C-3.34 6 -2.68 6 -2 6 C-2 4.35 -2 2.7 -2 1 C-1.34 0.67 -0.68 0.34 0 0 Z " fill="#0D0A0B" transform="translate(123,5)"/>
<path d="M0 0 C0.75667969 0.0928125 1.51335937 0.185625 2.29296875 0.28125 C1.96296875 2.26125 1.63296875 4.24125 1.29296875 6.28125 C0.14828125 6.4359375 0.14828125 6.4359375 -1.01953125 6.59375 C-3.87762549 7.32489039 -4.8644601 8.05076913 -6.70703125 10.28125 C-7.36703125 9.95125 -8.02703125 9.62125 -8.70703125 9.28125 C-7.83342369 7.76819773 -6.93225362 6.27103362 -6.01953125 4.78125 C-5.27123047 3.52828125 -5.27123047 3.52828125 -4.5078125 2.25 C-2.70703125 0.28125 -2.70703125 0.28125 0 0 Z " fill="#110F11" transform="translate(253.70703125,224.71875)"/>
<path d="M0 0 C0.8353125 0.804375 0.8353125 0.804375 1.6875 1.625 C2.450625 2.07875 3.21375 2.5325 4 3 C6.73398135 2.29042763 6.73398135 2.29042763 9 1 C7.11096664 3.83355004 5.82037953 5.20521303 3 7 C0 7 -3 7 -6 7 C-5.34 5.68 -4.68 4.36 -4 3 C-3.01 3.33 -2.02 3.66 -1 4 C-0.67 2.68 -0.34 1.36 0 0 Z " fill="#0F0C0F" transform="translate(214,273)"/>
<path d="M0 0 C-0.020625 0.78375 -0.04125 1.5675 -0.0625 2.375 C-0.18684063 4.98114961 -0.18684063 4.98114961 1 7 C0.67 7.66 0.34 8.32 0 9 C-3.81684226 7.44499019 -6.19195732 4.96404505 -9 2 C-2.25 0 -2.25 0 0 0 Z " fill="#0A0909" transform="translate(78,168)"/>
<path d="M0 0 C0 2.33333333 0 4.66666667 0 7 C-0.66 7.66 -1.32 8.32 -2 9 C-2 9.99 -2 10.98 -2 12 C-3.65 12 -5.3 12 -7 12 C-7.4375 9.9375 -7.4375 9.9375 -7 7 C-4.87919817 4.42739828 -2.49372439 2.20745501 0 0 Z " fill="#0A0607" transform="translate(16,132)"/>
<path d="M0 0 C1.70884005 1.62339805 3.37446717 3.29319053 5 5 C5 5.66 5 6.32 5 7 C4.34 7 3.68 7 3 7 C2.67 7.99 2.34 8.98 2 10 C1.01 10 0.02 10 -1 10 C-1.9765625 3.9453125 -1.9765625 3.9453125 -2 2 C-1.34 1.34 -0.68 0.68 0 0 Z " fill="#0F0D10" transform="translate(66,222)"/>
<path d="M0 0 C0.66 0.66 1.32 1.32 2 2 C0.35 5.96 -1.3 9.92 -3 14 C-5 10 -5 10 -5 6 C-3.74810874 2.72582285 -3.04376178 2.02917452 0 0 Z " fill="#120F11" transform="translate(56,169)"/>
<path d="M0 0 C0.99 0.66 1.98 1.32 3 2 C3.99 1.34 4.98 0.68 6 0 C6.33 1.65 6.66 3.3 7 5 C6.01 5.495 6.01 5.495 5 6 C4.34 5.67 3.68 5.34 3 5 C2.67 5.66 2.34 6.32 2 7 C-1.0625 7.625 -1.0625 7.625 -4 8 C-2.87548273 5.0280615 -1.77706209 2.66559313 0 0 Z " fill="#110E12" transform="translate(225,265)"/>
<path d="M0 0 C-0.99 1.98 -1.98 3.96 -3 6 C-6 6 -6 6 -7.38671875 4.6875 C-8.59114583 3.125 -9.79557292 1.5625 -11 0 C-6.98195309 -0.84098656 -3.98196457 -1.05404945 0 0 Z " fill="#110E10" transform="translate(119,217)"/>
<path d="M0 0 C2.52588702 2.36292656 3.88820837 3.66462511 5 7 C2.64561267 8.42944945 1.51967567 9.08661261 -1.25 8.625 C-1.8275 8.41875 -2.405 8.2125 -3 8 C-2.45276317 4.62537285 -1.9451 2.91765 0 0 Z " fill="#0E0C0E" transform="translate(61,215)"/>
<path d="M0 0 C0.66 0.66 1.32 1.32 2 2 C1.60800745 5.65859716 -0.21160693 8.83591995 -2 12 C-2.99 12.66 -3.98 13.32 -5 14 C-4.03603575 8.79459302 -3.12319499 4.40086567 0 0 Z " fill="#1C1416" transform="translate(26,47)"/>
<path d="M0 0 C6.24675325 6.07792208 6.24675325 6.07792208 8 9 C7.67 9.99 7.34 10.98 7 12 C5.68 10.68 4.36 9.36 3 8 C2.01 8.495 2.01 8.495 1 9 C-1.09230769 4.56923077 -1.09230769 4.56923077 -0.625 1.6875 C-0.41875 1.130625 -0.2125 0.57375 0 0 Z " fill="#120E0F" transform="translate(217,26)"/>
<path d="M0 0 C0.33 0.99 0.66 1.98 1 3 C-0.4375 5.1875 -0.4375 5.1875 -2 7 C-1.34 7 -0.68 7 0 7 C0.33 6.34 0.66 5.68 1 5 C1.66 6.32 2.32 7.64 3 9 C1.4221875 8.8453125 1.4221875 8.8453125 -0.1875 8.6875 C-4.15521993 8.63931296 -4.15521993 8.63931296 -6.9375 11.5 C-7.618125 12.325 -8.29875 13.15 -9 14 C-7.65070536 10.16336928 -5.92248975 7.34827431 -3.375 4.1875 C-2.42753906 3.00220703 -2.42753906 3.00220703 -1.4609375 1.79296875 C-0.97882813 1.20128906 -0.49671875 0.60960938 0 0 Z " fill="#131011" transform="translate(101,23)"/>
<path d="M0 0 C2.875 -0.125 2.875 -0.125 6 0 C6.66 0.66 7.32 1.32 8 2 C7.67 2.66 7.34 3.32 7 4 C7 5.32 7 6.64 7 8 C4.625 7.375 4.625 7.375 2 6 C0.6875 2.875 0.6875 2.875 0 0 Z " fill="#0E0C0D" transform="translate(119,113)"/>
<path d="M0 0 C3.34373475 0.55728913 6.03312999 1.35173889 9 3 C8.6875 4.9375 8.6875 4.9375 8 7 C7.01 7.33 6.02 7.66 5 8 C0 2.25 0 2.25 0 0 Z " fill="#130F12" transform="translate(102,208)"/>
<path d="M0 0 C0.33 0.66 0.66 1.32 1 2 C3.01669827 3.13350534 3.01669827 3.13350534 5 4 C4.67 4.99 4.34 5.98 4 7 C2.02 7.33 0.04 7.66 -2 8 C-2.6875 6.25 -2.6875 6.25 -3 4 C-1.5625 1.75 -1.5625 1.75 0 0 Z " fill="#0C0A0B" transform="translate(43,119)"/>
<path d="M0 0 C2.97 0.495 2.97 0.495 6 1 C5.34 3.31 4.68 5.62 4 8 C3.67 7.34 3.34 6.68 3 6 C2.01 6.33 1.02 6.66 0 7 C-0.93423645 3.98968256 -1.04449911 3.13349732 0 0 Z " fill="#0F0C0F" transform="translate(81,88)"/>
<path d="M0 0 C0.556875 0.28875 1.11375 0.5775 1.6875 0.875 C4.08494645 2.0413253 6.51596939 3.0339881 9 4 C8.67 4.99 8.34 5.98 8 7 C4.32579134 6.69381595 3.21864487 6.24228216 0.6875 3.4375 C0.130625 2.633125 -0.42625 1.82875 -1 1 C-0.67 0.67 -0.34 0.34 0 0 Z " fill="#140C15" transform="translate(116,223)"/>
<path d="M0 0 C0.99 0 1.98 0 3 0 C3 0.66 3 1.32 3 2 C3.66 2.33 4.32 2.66 5 3 C7.1875 5.375 7.1875 5.375 9 8 C8.67 8.99 8.34 9.98 8 11 C4.31993178 7.61831569 2.0214155 4.57478244 0 0 Z " fill="#110D0E" transform="translate(11,212)"/>
<path d="M0 0 C0.99 0.66 1.98 1.32 3 2 C3 2.66 3 3.32 3 4 C1.824375 4.37125 1.824375 4.37125 0.625 4.75 C-2.45455085 6.21645279 -2.67019235 6.98576932 -4 10 C-5.29470975 11.37086915 -6.62150897 12.71340837 -8 14 C-8 9.96618977 -6.40426438 8.50566363 -4 5.3125 C-3.2575 4.31863281 -2.515 3.32476562 -1.75 2.30078125 C-1.1725 1.54152344 -0.595 0.78226563 0 0 Z " fill="#131112" transform="translate(266,203)"/>
<path d="M0 0 C1.65 1.65 3.3 3.3 5 5 C2.42786866 6.61949011 1.32330841 7.04408751 -1.75 6.625 C-2.4925 6.41875 -3.235 6.2125 -4 6 C-2.25 1.125 -2.25 1.125 0 0 Z " fill="#100E10" transform="translate(86,127)"/>
<path d="M0 0 C0.99 0.99 1.98 1.98 3 3 C1.95125002 5.62187494 1.35068687 6.79371361 -1.125 8.25 C-1.74375 8.4975 -2.3625 8.745 -3 9 C-2.814375 8.4225 -2.62875 7.845 -2.4375 7.25 C-1.95976454 4.79307475 -2.24270636 3.35602466 -3 1 C-2.01 1.33 -1.02 1.66 0 2 C0 1.34 0 0.68 0 0 Z " fill="#0F0C0F" transform="translate(75,235)"/>
<path d="M0 0 C0.33 0.66 0.66 1.32 1 2 C1.99 2.33 2.98 2.66 4 3 C3.01 5.64 2.02 8.28 1 11 C0.34 10.01 -0.32 9.02 -1 8 C-1.99 8.33 -2.98 8.66 -4 9 C-3.625 7.0625 -3.625 7.0625 -3 5 C-2.34 4.67 -1.68 4.34 -1 4 C-1 4.66 -1 5.32 -1 6 C-0.34 6 0.32 6 1 6 C1 5.01 1 4.02 1 3 C0.34 2.67 -0.32 2.34 -1 2 C-0.67 1.34 -0.34 0.68 0 0 Z " fill="#141011" transform="translate(221,184)"/>
<path d="M0 0 C1.32 0.66 2.64 1.32 4 2 C2.77065985 5.68802044 1.06140622 6.72356973 -2 9 C-2 8.34 -2 7.68 -2 7 C-2.66 6.67 -3.32 6.34 -4 6 C-3.525625 5.566875 -3.05125 5.13375 -2.5625 4.6875 C-0.76313043 2.97690387 -0.76313043 2.97690387 0 0 Z " fill="#120F0F" transform="translate(246,281)"/>
<path d="M0 0 C0.66 0.33 1.32 0.66 2 1 C1.175 1.763125 0.35 2.52625 -0.5 3.3125 C-3.34055197 5.75434142 -3.34055197 5.75434142 -3 9 C-5.49064888 9.68707555 -7.37886292 10 -10 10 C-6.7 6.7 -3.4 3.4 0 0 Z " fill="#191617" transform="translate(112,12)"/>
<path d="M0 0 C1.32 0.33 2.64 0.66 4 1 C2.11788404 4.48191452 0.4990401 7.03178994 -3 9 C-3.99 8.67 -4.98 8.34 -6 8 C-3.74259377 5.66475218 -1.7194239 3.81294927 1 2 C0.67 1.34 0.34 0.68 0 0 Z " fill="#1A1619" transform="translate(238,320)"/>
<path d="M0 0 C1.65 0.33 3.3 0.66 5 1 C5 1.66 5 2.32 5 3 C4.34 3 3.68 3 3 3 C3.33 3.99 3.66 4.98 4 6 C1.03 5.505 1.03 5.505 -2 5 C-1.34 3.35 -0.68 1.7 0 0 Z " fill="#0D0A0B" transform="translate(51,252)"/>
<path d="M0 0 C2.3773161 2.3773161 2.67028521 3.70285207 3 7 C2.34 7.66 1.68 8.32 1 9 C0.01 9 -0.98 9 -2 9 C-2.33 7.02 -2.66 5.04 -3 3 C-2.34 3 -1.68 3 -1 3 C-0.67 2.01 -0.34 1.02 0 0 Z " fill="#0E0A0B" transform="translate(267,248)"/>
<path d="M0 0 C0.99 0 1.98 0 3 0 C3.66 1.32 4.32 2.64 5 4 C2.525 5.485 2.525 5.485 0 7 C-1.125 2.25 -1.125 2.25 0 0 Z " fill="#120D0F" transform="translate(225,179)"/>
<path d="M0 0 C4.19174654 1.04793663 5.21592961 1.91763635 8 5 C7.01 6.485 7.01 6.485 6 8 C4.02 5.36 2.04 2.72 0 0 Z " fill="#1A1419" transform="translate(31,94)"/>
<path d="M0 0 C2 1 4 2 6 3 C5.67 3.66 5.34 4.32 5 5 C2 6 2 6 -1 5 C-0.67 3.35 -0.34 1.7 0 0 Z " fill="#221B1D" transform="translate(266,23)"/>
<path d="M0 0 C1.32 0.33 2.64 0.66 4 1 C3.01 3.31 2.02 5.62 1 8 C0.01 6.68 -0.98 5.36 -2 4 C-1.34 2.68 -0.68 1.36 0 0 Z " fill="#110F0F" transform="translate(259,160)"/>
<path d="M0 0 C2.91517292 1.07401108 4.77810176 1.77810176 7 4 C5.02 4.66 3.04 5.32 1 6 C-0.0625 4.125 -0.0625 4.125 -1 2 C-0.67 1.34 -0.34 0.68 0 0 Z " fill="#130E0F" transform="translate(296,129)"/>
<path d="M0 0 C1 3 1 3 1 6 C0.34 6 -0.32 6 -1 6 C-1 6.66 -1 7.32 -1 8 C-2.98 8.99 -2.98 8.99 -5 10 C-3.66511872 6.40608886 -2.03977277 3.24509304 0 0 Z " fill="#110C10" transform="translate(191,9)"/>
<path d="M0 0 C2.875 -0.1875 2.875 -0.1875 6 0 C6.66 0.99 7.32 1.98 8 3 C7.01 4.485 7.01 4.485 6 6 C3.97945196 4.35830472 1.97956942 2.69088222 0 1 C0 0.67 0 0.34 0 0 Z " fill="#0E0C0F" transform="translate(196,258)"/>
<path d="M0 0 C1.32 0.66 2.64 1.32 4 2 C2.35 3.65 0.7 5.3 -1 7 C-1.625 5.1875 -1.625 5.1875 -2 3 C-1.34 2.01 -0.68 1.02 0 0 Z " fill="#0E0B0C" transform="translate(183,122)"/>
<path d="M0 0 C0.66 0 1.32 0 2 0 C2.625 2.875 2.625 2.875 3 6 C2.34 6.66 1.68 7.32 1 8 C-1.125 3.375 -1.125 3.375 0 0 Z " fill="#131011" transform="translate(57,264)"/>
<path d="M0 0 C0.99 0.33 1.98 0.66 3 1 C1.63016497 4.16115776 1.0109362 4.9927092 -2 7 C-2 5.02 -2 3.04 -2 1 C-1.34 0.67 -0.68 0.34 0 0 Z " fill="#181415" transform="translate(206,217)"/>
<path d="M0 0 C0.99 0.99 1.98 1.98 3 3 C2.34 3 1.68 3 1 3 C1 3.66 1 4.32 1 5 C1.66 5 2.32 5 3 5 C3 5.66 3 6.32 3 7 C1.68 7 0.36 7 -1 7 C-1.33 5.35 -1.66 3.7 -2 2 C-1.34 2 -0.68 2 0 2 C0 1.34 0 0.68 0 0 Z " fill="#0E0A0E" transform="translate(44,106)"/>
<path d="M0 0 C0.66 0.66 1.32 1.32 2 2 C1.1875 3.9375 1.1875 3.9375 0 6 C-0.99 6.33 -1.98 6.66 -3 7 C-3.1875 4.625 -3.1875 4.625 -3 2 C-2.01 1.34 -1.02 0.68 0 0 Z " fill="#090808" transform="translate(243,281)"/>
<path d="M0 0 C0.99 0 1.98 0 3 0 C3 1.65 3 3.3 3 5 C2.01 5 1.02 5 0 5 C-0.66 4.01 -1.32 3.02 -2 2 C-1.34 1.34 -0.68 0.68 0 0 Z " fill="#0D0A0B" transform="translate(67,164)"/>
<path d="M0 0 C0.33 0.66 0.66 1.32 1 2 C3.02463255 2.65213292 3.02463255 2.65213292 5 3 C4.071875 3.185625 4.071875 3.185625 3.125 3.375 C0.80879168 3.87197356 0.80879168 3.87197356 -1 6 C-1 5.34 -1 4.68 -1 4 C-1.99 3.67 -2.98 3.34 -4 3 C-2 1 -2 1 0 0 Z " fill="#1A1519" transform="translate(181,130)"/>
<path d="M0 0 C1.98 1.65 3.96 3.3 6 5 C4.02 5.99 4.02 5.99 2 7 C0 5 0 5 -0.125 2.375 C-0.08375 1.59125 -0.0425 0.8075 0 0 Z " fill="#151111" transform="translate(201,9)"/>
<path d="M0 0 C0.598125 0.350625 1.19625 0.70125 1.8125 1.0625 C1.4825 2.0525 1.1525 3.0425 0.8125 4.0625 C-1.65550047 2.91076645 -3.23533565 2.01466435 -5.1875 0.0625 C-2.1875 -0.9375 -2.1875 -0.9375 0 0 Z " fill="#120F0F" transform="translate(77.1875,172.9375)"/>
<path d="M0 0 C1.65 0 3.3 0 5 0 C3.02 2.97 3.02 2.97 1 6 C-0.0625 4.125 -0.0625 4.125 -1 2 C-0.67 1.34 -0.34 0.68 0 0 Z " fill="#191415" transform="translate(210,211)"/>
<path d="M0 0 C1.9375 0.75 1.9375 0.75 4 2 C4.75 4.125 4.75 4.125 5 6 C3.35 5.67 1.7 5.34 0 5 C0 3.35 0 1.7 0 0 Z " fill="#151213" transform="translate(283,88)"/>
</svg>
